<?xml version="1.0" standalone="no"?>
<!DOCTYPE svg PUBLIC "-//W3C//DTD SVG 20010904//EN"
 "http://www.w3.org/TR/2001/REC-SVG-20010904/DTD/svg10.dtd">
<svg version="1.0" xmlns="http://www.w3.org/2000/svg"
 width="500.000000pt" height="500.000000pt" viewBox="0 0 500.000000 500.000000"
 preserveAspectRatio="xMidYMid meet">
<metadata>
Created by potrace 1.11, written by Peter Selinger 2001-2013
</metadata>
<g transform="translate(0.000000,500.000000) scale(0.100000,-0.100000)"
fill="#000000" stroke="none">
<path d="M1400 2585 l0 -255 99 0 c91 0 102 2 128 24 26 22 28 31 31 109 3 72
1 88 -15 104 -17 17 -17 19 0 36 20 20 24 133 7 184 -15 42 -47 53 -155 53
l-95 0 0 -255z m165 110 l0 -60 -37 -3 -38 -3 0 66 0 66 38 -3 37 -3 0 -60z
m5 -214 c0 -63 -7 -71 -56 -71 -23 0 -24 3 -24 65 l0 65 40 0 40 0 0 -59z"/>
<path d="M1720 2584 l0 -255 43 3 42 3 3 83 c3 73 5 82 22 82 15 0 23 -13 35
-57 32 -115 28 -108 73 -111 23 -2 42 0 42 4 0 4 -9 43 -21 85 l-21 78 21 27
c19 24 21 40 21 146 0 113 -1 120 -25 143 -23 23 -31 25 -130 25 l-105 0 0
-256z m168 164 c12 -12 17 -114 6 -142 -4 -11 -19 -16 -45 -16 l-39 0 0 85 0
85 33 0 c18 0 38 -5 45 -12z"/>
<path d="M2146 2823 c-3 -10 -26 -115 -51 -233 -25 -118 -48 -225 -52 -237 -5
-21 -2 -23 40 -23 l45 0 7 50 7 50 58 0 c58 0 58 0 65 -32 13 -67 14 -68 56
-68 24 0 39 5 39 13 0 6 -23 121 -51 255 l-52 242 -53 0 c-41 0 -54 -4 -58
-17z m93 -300 c1 -9 -14 -13 -40 -13 -34 0 -40 3 -35 18 4 13 31 154 37 191 1
7 38 -179 38 -196z"/>
<path d="M2462 2833 c-7 -3 -19 -18 -27 -33 -19 -37 -21 -203 -2 -218 6 -5 45
-20 85 -33 l72 -23 0 -52 c0 -44 -3 -54 -20 -59 -39 -13 -60 3 -60 46 l0 39
-45 0 -45 0 0 -50 c0 -93 29 -120 130 -120 70 0 104 13 119 47 16 34 14 198
-1 211 -7 5 -46 20 -86 33 l-73 23 3 56 3 55 35 0 c34 0 35 -1 38 -43 l3 -43
42 3 c41 3 42 4 45 42 4 51 -4 82 -28 106 -17 17 -33 20 -97 19 -43 0 -84 -3
-91 -6z"/>
<path d="M2782 2833 c-7 -3 -19 -18 -27 -33 -19 -37 -21 -203 -2 -218 6 -5 45
-20 85 -33 l72 -23 0 -52 c0 -44 -3 -54 -20 -59 -39 -13 -60 3 -60 46 l0 39
-45 0 -45 0 0 -50 c0 -93 29 -120 130 -120 70 0 104 13 119 47 16 34 14 198
-1 211 -7 5 -46 20 -86 33 l-73 23 3 56 3 55 35 0 c34 0 35 -1 38 -43 l3 -43
42 3 c41 3 42 4 45 42 4 51 -4 82 -28 106 -17 17 -33 20 -97 19 -43 0 -84 -3
-91 -6z"/>
<path d="M3060 2585 l0 -255 130 0 130 0 0 40 0 40 -85 0 -85 0 0 65 0 64 63
3 62 3 3 43 3 42 -65 0 -66 0 0 65 0 65 85 0 85 0 0 40 0 40 -130 0 -130 0 0
-255z"/>
<path d="M3380 2585 l0 -255 125 0 125 0 0 40 0 40 -80 0 -80 0 0 215 0 215
-45 0 -45 0 0 -255z"/>
</g>
</svg>
